<?xml version="1.0" encoding="UTF-8"?>
<!-- This file is generated by npm run build:icons -->
<svg xmlns="http://www.w3.org/2000/svg" xmlns:xlink="http://www.w3.org/1999/xlink" width="0" height="0">
<defs>
<symbol viewBox="0 0 24 24" fill="none" stroke="currentColor" stroke-width="2" stroke-linecap="round" stroke-linejoin="round" id="lucide/arrow-down">
  <path d="M12 5v14" ></path>
  <path d="m19 12-7 7-7-7" ></path>
</symbol>
<symbol viewBox="0 0 24 24" fill="none" stroke="currentColor" stroke-width="2" stroke-linecap="round" stroke-linejoin="round" id="lucide/loader-circle">
  <path d="M21 12a9 9 0 1 1-6.219-8.56" ></path>
</symbol>
<symbol viewBox="0 0 24 24" fill="none" stroke="currentColor" stroke-width="2" stroke-linecap="round" stroke-linejoin="round" id="lucide/moon">
  <path d="M12 3a6 6 0 0 0 9 9 9 9 0 1 1-9-9Z" ></path>
</symbol>
<symbol viewBox="0 0 24 24" fill="none" stroke="currentColor" stroke-width="2" stroke-linecap="round" stroke-linejoin="round" id="lucide/send">
  <path d="M14.536 21.686a.5.5 0 0 0 .937-.024l6.5-19a.496.496 0 0 0-.635-.635l-19 6.5a.5.5 0 0 0-.024.937l7.93 3.18a2 2 0 0 1 1.112 1.11z" ></path>
  <path d="m21.854 2.147-10.94 10.939" ></path>
</symbol>
<symbol viewBox="0 0 24 24" fill="none" stroke="currentColor" stroke-width="2" stroke-linecap="round" stroke-linejoin="round" id="lucide/sun">
  <circle cx="12" cy="12" r="4" ></circle>
  <path d="M12 2v2" ></path>
  <path d="M12 20v2" ></path>
  <path d="m4.93 4.93 1.41 1.41" ></path>
  <path d="m17.66 17.66 1.41 1.41" ></path>
  <path d="M2 12h2" ></path>
  <path d="M20 12h2" ></path>
  <path d="m6.34 17.66-1.41 1.41" ></path>
  <path d="m19.07 4.93-1.41 1.41" ></path>
</symbol>
</defs>
</svg>
